<?xml version="1.0" encoding="UTF-8" standalone="no"?>
<!-- Created with Inkscape (http://www.inkscape.org/) -->

<svg
   xmlns:dc="http://purl.org/dc/elements/1.1/"
   xmlns:cc="http://creativecommons.org/ns#"
   xmlns:rdf="http://www.w3.org/1999/02/22-rdf-syntax-ns#"
   xmlns:svg="http://www.w3.org/2000/svg"
   xmlns="http://www.w3.org/2000/svg"
   xmlns:sodipodi="http://sodipodi.sourceforge.net/DTD/sodipodi-0.dtd"
   xmlns:inkscape="http://www.inkscape.org/namespaces/inkscape"
   width="744.09448819"
   height="1052.3622047"
   id="svg6611"
   version="1.1"
   inkscape:version="0.48.2 r9819"
   sodipodi:docname="curtain.svg"
   inkscape:export-filename="/Users/jamiely/Documents/code/one-game-a-month/poker-match/assets/curtain.png"
   inkscape:export-xdpi="101.26"
   inkscape:export-ydpi="101.26">
  <defs
     id="defs6613" />
  <sodipodi:namedview
     id="base"
     pagecolor="#ffffff"
     bordercolor="#666666"
     borderopacity="1.0"
     inkscape:pageopacity="0.0"
     inkscape:pageshadow="2"
     inkscape:zoom="0.78450343"
     inkscape:cx="358.05228"
     inkscape:cy="924.46747"
     inkscape:document-units="px"
     inkscape:current-layer="layer1"
     showgrid="false"
     inkscape:window-width="1440"
     inkscape:window-height="852"
     inkscape:window-x="0"
     inkscape:window-y="0"
     inkscape:window-maximized="1" />
  <metadata
     id="metadata6616">
    <rdf:RDF>
      <cc:Work
         rdf:about="">
        <dc:format>image/svg+xml</dc:format>
        <dc:type
           rdf:resource="http://purl.org/dc/dcmitype/StillImage" />
        <dc:title></dc:title>
      </cc:Work>
    </rdf:RDF>
  </metadata>
  <g
     inkscape:label="Layer 1"
     inkscape:groupmode="layer"
     id="layer1">
    <path
       style="color:#000000;fill:#5c1a1a;fill-opacity:1;fill-rule:nonzero;stroke:none;stroke-width:1;marker:none;visibility:visible;display:inline;overflow:visible;enable-background:accumulate"
       d="m -68.174789,691.42605 0,41.40624 0.03125,0 c -0.0101,0.36448 -0.03125,0.72683 -0.03125,1.09375 0,21.47178 17.40322,38.875 38.875,38.875 16.538282,0 28.69200468,-11.22415 36.2499997,-24.875 5.3644933,-9.68906 17.8106403,-13.875 29.7500003,-13.875 11.937338,0 24.357308,4.1889 29.718748,13.875 7.55646,13.65169 19.74297,24.875 36.281251,24.875 1.01179,0 2.00767,-0.0491 3,-0.125 0.99233,0.0759 1.98821,0.125 3,0.125 16.53828,0 28.692,-11.22415 36.25,-24.875 5.36449,-9.68906 17.81064,-13.875 29.75,-13.875 11.93734,0 24.35731,4.1889 29.71875,13.875 7.55646,13.65169 19.74297,24.875 36.28125,24.875 0.3355,0 0.66654,-0.0229 1,-0.0312 0.33346,0.008 0.6645,0.0312 1,0.0312 0.51682,0 1.023,-0.01 1.53125,-0.0312 0.50825,-0.0216 1.00033,-0.0822 1.5,-0.125 1.499,-0.12831 2.98472,-0.34755 4.40625,-0.65625 0.47384,-0.1029 0.94104,-0.19063 1.40625,-0.3125 12.0954,-3.16856 21.26538,-12.65868 27.40625,-23.75 5.36449,-9.68906 17.81064,-13.875 29.75,-13.875 11.93734,0 24.35731,4.1889 29.71875,13.875 0.47228,0.85323 0.96037,1.69914 1.46875,2.53125 7.62575,12.48168 19.30786,22.34375 34.8125,22.34375 1.01179,0 2.00767,-0.0491 3,-0.125 0.99233,0.0759 1.98821,0.125 3,0.125 1.03364,0 2.03191,-0.0707 3.03125,-0.15625 14.99005,-1.28311 26.13313,-11.92108 33.21875,-24.71875 0.33528,-0.60557 0.705,-1.21836 1.09375,-1.78125 1.16626,-1.68868 2.54418,-3.18378 4.125,-4.5 5.79634,-4.82613 14.04977,-7.19923 22.28125,-7.5625 0.74832,-0.033 1.50379,-0.0312 2.25,-0.0312 11.93734,0 24.35731,4.1889 29.71875,13.875 0.47228,0.85323 0.96037,1.69914 1.46875,2.53125 7.62575,12.48168 19.30786,22.34375 34.8125,22.34375 0.3355,0 0.66654,-0.0228 1,-0.0312 0.33346,0.008 0.6645,0.0312 1,0.0312 16.53828,0 28.692,-11.22415 36.25,-24.875 5.36449,-9.68906 17.81064,-13.875 29.75,-13.875 11.93734,0 24.35731,4.1889 29.71875,13.875 7.55646,13.65169 19.74297,24.875 36.28125,24.875 1.01179,0 2.00767,-0.0491 3,-0.125 0.99233,0.0759 1.98821,0.125 3,0.125 16.53828,0 28.692,-11.22415 36.25,-24.875 5.36449,-9.68906 17.81064,-13.875 29.75,-13.875 11.93734,0 24.35731,4.1889 29.71875,13.875 7.55646,13.65169 19.74297,24.875 36.28125,24.875 21.47178,0 38.875,-17.40322 38.875,-38.875 0,-0.84139 -0.0412,-1.6719 -0.0937,-2.5 l 0,-39.99999 -138,0 -71.65625,0 -62.34375,0 -138,0 -71.65625,0 -62.34375,0 -75.65625,0 -62.34375,0 -71.656251,0 -137.999998,0 z"
       id="path6621-8"
       inkscape:connector-curvature="0" />
    <path
       style="color:#000000;fill:#a52f2f;fill-opacity:1;fill-rule:nonzero;stroke:none;stroke-width:1;marker:none;visibility:visible;display:inline;overflow:visible;enable-background:accumulate"
       d="m -68.174789,671.42605 0,41.40624 0.03125,0 c -0.0101,0.36448 -0.03125,0.72683 -0.03125,1.09375 0,21.47178 17.40322,38.875 38.875,38.875 16.538282,0 28.69200468,-11.22415 36.2499997,-24.875 5.3644933,-9.68906 17.8106403,-13.875 29.7500033,-13.875 11.937335,0 24.357305,4.1889 29.718745,13.875 7.55646,13.65169 19.74297,24.875 36.281251,24.875 1.01179,0 2.00767,-0.0491 3,-0.125 0.99233,0.0759 1.98821,0.125 3,0.125 16.53828,0 28.692,-11.22415 36.25,-24.875 5.36449,-9.68906 17.81064,-13.875 29.75,-13.875 11.93734,0 24.35731,4.1889 29.71875,13.875 7.55646,13.65169 19.74297,24.875 36.28125,24.875 0.3355,0 0.66654,-0.0229 1,-0.0312 0.33346,0.008 0.6645,0.0312 1,0.0312 0.51682,0 1.023,-0.01 1.53125,-0.0312 0.50825,-0.0216 1.00033,-0.0822 1.5,-0.125 1.499,-0.12831 2.98472,-0.34755 4.40625,-0.65625 0.47384,-0.1029 0.94104,-0.19063 1.40625,-0.3125 12.0954,-3.16856 21.26538,-12.65868 27.40625,-23.75 5.36449,-9.68906 17.81064,-13.875 29.75,-13.875 11.93734,0 24.35731,4.1889 29.71875,13.875 0.47228,0.85323 0.96037,1.69914 1.46875,2.53125 7.62575,12.48168 19.30786,22.34375 34.8125,22.34375 1.01179,0 2.00767,-0.0491 3,-0.125 0.99233,0.0759 1.98821,0.125 3,0.125 1.03364,0 2.03191,-0.0707 3.03125,-0.15625 14.99005,-1.28311 26.13313,-11.92108 33.21875,-24.71875 0.33528,-0.60557 0.705,-1.21836 1.09375,-1.78125 1.16626,-1.68868 2.54418,-3.18378 4.125,-4.5 5.79634,-4.82613 14.04977,-7.19923 22.28125,-7.5625 0.74832,-0.033 1.50379,-0.0312 2.25,-0.0312 11.93734,0 24.35731,4.1889 29.71875,13.875 0.47228,0.85323 0.96037,1.69914 1.46875,2.53125 7.62575,12.48168 19.30786,22.34375 34.8125,22.34375 0.3355,0 0.66654,-0.0228 1,-0.0312 0.33346,0.008 0.6645,0.0312 1,0.0312 16.53828,0 28.692,-11.22415 36.25,-24.875 5.36449,-9.68906 17.81064,-13.875 29.75,-13.875 11.93734,0 24.35731,4.1889 29.71875,13.875 7.55646,13.65169 19.74297,24.875 36.28125,24.875 1.01179,0 2.00767,-0.0491 3,-0.125 0.99233,0.0759 1.98821,0.125 3,0.125 16.53828,0 28.692,-11.22415 36.25,-24.875 5.36449,-9.68906 17.81064,-13.875 29.75,-13.875 11.93734,0 24.35731,4.1889 29.71875,13.875 7.55646,13.65169 19.74297,24.875 36.28125,24.875 21.47178,0 38.875,-17.40322 38.875,-38.875 0,-0.84139 -0.0412,-1.6719 -0.0937,-2.5 l 0,-39.99999 -138,0 -71.65625,0 -62.34375,0 -138,0 -71.65625,0 -62.34375,0 -75.65625,0 -62.34375,0 -71.656251,0 -137.999998,0 z"
       id="path6621"
       inkscape:connector-curvature="0" />
    <path
       style="color:#000000;fill:#b33232;fill-opacity:1;fill-rule:nonzero;stroke:none;stroke-width:1;marker:none;visibility:visible;display:inline;overflow:visible;enable-background:accumulate"
       d="m -68.174789,651.42605 0,41.40624 0.03125,0 c -0.0101,0.36448 -0.03125,0.72683 -0.03125,1.09375 0,21.47178 17.40322,38.875 38.875,38.875 16.538282,0 28.69200468,-11.22415 36.2499997,-24.875 5.3644933,-9.68906 17.8106403,-13.875 29.7500003,-13.875 11.937338,0 24.357308,4.1889 29.718748,13.875 7.55646,13.65169 19.74297,24.875 36.281251,24.875 1.01179,0 2.00767,-0.0491 3,-0.125 0.99233,0.0759 1.98821,0.125 3,0.125 16.53828,0 28.692,-11.22415 36.25,-24.875 5.36449,-9.68906 17.81064,-13.875 29.75,-13.875 11.93734,0 24.35731,4.1889 29.71875,13.875 7.55646,13.65169 19.74297,24.875 36.28125,24.875 0.3355,0 0.66654,-0.0229 1,-0.0312 0.33346,0.008 0.6645,0.0312 1,0.0312 0.51682,0 1.023,-0.01 1.53125,-0.0312 0.50825,-0.0216 1.00033,-0.0822 1.5,-0.125 1.499,-0.12831 2.98472,-0.34755 4.40625,-0.65625 0.47384,-0.1029 0.94104,-0.19063 1.40625,-0.3125 12.0954,-3.16856 21.26538,-12.65868 27.40625,-23.75 5.36449,-9.68906 17.81064,-13.875 29.75,-13.875 11.93734,0 24.35731,4.1889 29.71875,13.875 0.47228,0.85323 0.96037,1.69914 1.46875,2.53125 7.62575,12.48168 19.30786,22.34375 34.8125,22.34375 1.01179,0 2.00767,-0.0491 3,-0.125 0.99233,0.0759 1.98821,0.125 3,0.125 1.03364,0 2.03191,-0.0707 3.03125,-0.15625 14.99005,-1.28311 26.13313,-11.92108 33.21875,-24.71875 0.33528,-0.60557 0.705,-1.21836 1.09375,-1.78125 1.16626,-1.68868 2.54418,-3.18378 4.125,-4.5 5.79634,-4.82613 14.04977,-7.19923 22.28125,-7.5625 0.74832,-0.033 1.50379,-0.0312 2.25,-0.0312 11.93734,0 24.35731,4.1889 29.71875,13.875 0.47228,0.85323 0.96037,1.69914 1.46875,2.53125 7.62575,12.48168 19.30786,22.34375 34.8125,22.34375 0.3355,0 0.66654,-0.0228 1,-0.0312 0.33346,0.008 0.6645,0.0312 1,0.0312 16.53828,0 28.692,-11.22415 36.25,-24.875 5.36449,-9.68906 17.81064,-13.875 29.75,-13.875 11.93734,0 24.35731,4.1889 29.71875,13.875 7.55646,13.65169 19.74297,24.875 36.28125,24.875 1.01179,0 2.00767,-0.0491 3,-0.125 0.99233,0.0759 1.98821,0.125 3,0.125 16.53828,0 28.692,-11.22415 36.25,-24.875 5.36449,-9.68906 17.81064,-13.875 29.75,-13.875 11.93734,0 24.35731,4.1889 29.71875,13.875 7.55646,13.65169 19.74297,24.875 36.28125,24.875 21.47178,0 38.875,-17.40322 38.875,-38.875 0,-0.84139 -0.0412,-1.6719 -0.0937,-2.5 l 0,-39.99999 -138,0 -71.65625,0 -62.34375,0 -138,0 -71.65625,0 -62.34375,0 -75.65625,0 -62.34375,0 -71.656251,0 -137.999998,0 z"
       id="path6621-1"
       inkscape:connector-curvature="0" />
    <path
       style="color:#000000;fill:#c93f3f;fill-opacity:1;fill-rule:nonzero;stroke:none;stroke-width:1;marker:none;visibility:visible;display:inline;overflow:visible;enable-background:accumulate"
       d="m -68.174789,1.7283567 0,671.1039333 0.03125,0 c -0.0101,0.36448 -0.03125,0.72683 -0.03125,1.09375 0,21.47178 17.40322,38.875 38.875,38.875 16.538282,0 28.69200468,-11.22415 36.2499997,-24.875 5.3644933,-9.68906 17.8106403,-13.875 29.7500003,-13.875 11.937338,0 24.357308,4.1889 29.718748,13.875 7.55646,13.65169 19.74297,24.875 36.281251,24.875 1.01179,0 2.00767,-0.0491 3,-0.125 0.99233,0.0759 1.98821,0.125 3,0.125 16.53828,0 28.692,-11.22415 36.25,-24.875 5.36449,-9.68906 17.81064,-13.875 29.75,-13.875 11.93734,0 24.35731,4.1889 29.71875,13.875 7.55646,13.65169 19.74297,24.875 36.28125,24.875 0.3355,0 0.66654,-0.0229 1,-0.0312 0.33346,0.008 0.6645,0.0312 1,0.0312 0.51682,0 1.023,-0.01 1.53125,-0.0312 0.50825,-0.0216 1.00033,-0.0822 1.5,-0.125 1.499,-0.12831 2.98472,-0.34755 4.40625,-0.65625 0.47384,-0.1029 0.94104,-0.19063 1.40625,-0.3125 12.0954,-3.16856 21.26538,-12.65868 27.40625,-23.75 5.36449,-9.68906 17.81064,-13.875 29.75,-13.875 11.93734,0 24.35731,4.1889 29.71875,13.875 0.47228,0.85323 0.96037,1.69914 1.46875,2.53125 7.62575,12.48168 19.30786,22.34375 34.8125,22.34375 1.01179,0 2.00767,-0.0491 3,-0.125 0.99233,0.0759 1.98821,0.125 3,0.125 1.03364,0 2.03191,-0.0707 3.03125,-0.15625 14.99005,-1.28311 26.13313,-11.92108 33.21875,-24.71875 0.33528,-0.60557 0.705,-1.21836 1.09375,-1.78125 1.16626,-1.68868 2.54418,-3.18378 4.125,-4.5 5.79634,-4.82613 14.04977,-7.19923 22.28125,-7.5625 0.74832,-0.033 1.50379,-0.0312 2.25,-0.0312 11.93734,0 24.35731,4.1889 29.71875,13.875 0.47228,0.85323 0.96037,1.69914 1.46875,2.53125 7.62575,12.48168 19.30786,22.34375 34.8125,22.34375 0.3355,0 0.66654,-0.0228 1,-0.0312 0.33346,0.008 0.6645,0.0312 1,0.0312 16.53828,0 28.692,-11.22415 36.25,-24.875 5.36449,-9.68906 17.81064,-13.875 29.75,-13.875 11.93734,0 24.35731,4.1889 29.71875,13.875 7.55646,13.65169 19.74297,24.875 36.28125,24.875 1.01179,0 2.00767,-0.0491 3,-0.125 0.99233,0.0759 1.98821,0.125 3,0.125 16.53828,0 28.692,-11.22415 36.25,-24.875 5.36449,-9.68906 17.81064,-13.875 29.75,-13.875 11.93734,0 24.35731,4.1889 29.71875,13.875 7.55646,13.65169 19.74297,24.875 36.28125,24.875 21.47178,0 38.875,-17.40322 38.875,-38.875 0,-0.84139 -0.0412,-1.6719 -0.0937,-2.5 l 0,-669.6976833 -138,0 -71.65625,0 -62.34375,0 -138,0 -71.65625,0 -62.34375,0 -75.65625,0 -62.34375,0 -71.656251,0 -137.999998,0 z"
       id="path6621-1-8"
       inkscape:connector-curvature="0"
       sodipodi:nodetypes="cccsssssscssssscsccssssssscssssscsssscssssscssssssccccccccccccc" />
  </g>
</svg>
