<?xml version="1.0" encoding="UTF-8" standalone="no"?>
<!-- Created with Inkscape (http://www.inkscape.org/) -->

<svg
   xmlns:dc="http://purl.org/dc/elements/1.1/"
   xmlns:cc="http://creativecommons.org/ns#"
   xmlns:rdf="http://www.w3.org/1999/02/22-rdf-syntax-ns#"
   xmlns:svg="http://www.w3.org/2000/svg"
   xmlns="http://www.w3.org/2000/svg"
   xmlns:sodipodi="http://sodipodi.sourceforge.net/DTD/sodipodi-0.dtd"
   xmlns:inkscape="http://www.inkscape.org/namespaces/inkscape"
   width="512"
   height="512"
   id="svg3421"
   version="1.1"
   inkscape:version="0.48.2 r9819"
   sodipodi:docname="New document 6">
  <defs
     id="defs3423" />
  <sodipodi:namedview
     id="base"
     pagecolor="#ffffff"
     bordercolor="#666666"
     borderopacity="1.0"
     inkscape:pageopacity="0.0"
     inkscape:pageshadow="2"
     inkscape:zoom="0.64424779"
     inkscape:cx="56.627747"
     inkscape:cy="251.42857"
     inkscape:document-units="px"
     inkscape:current-layer="layer1"
     showgrid="false"
     inkscape:window-width="1440"
     inkscape:window-height="852"
     inkscape:window-x="0"
     inkscape:window-y="0"
     inkscape:window-maximized="1" />
  <metadata
     id="metadata3426">
    <rdf:RDF>
      <cc:Work
         rdf:about="">
        <dc:format>image/svg+xml</dc:format>
        <dc:type
           rdf:resource="http://purl.org/dc/dcmitype/StillImage" />
        <dc:title></dc:title>
      </cc:Work>
    </rdf:RDF>
  </metadata>
  <g
     inkscape:label="Layer 1"
     inkscape:groupmode="layer"
     id="layer1"
     transform="translate(0,-540.36218)">
    <g
       id="g3491"
       transform="translate(0,20.178571)">
      <g
         transform="matrix(1.0382592,0.30487097,-0.30487097,1.0382592,187.86229,-79.186968)"
         id="g3476">
        <path
           sodipodi:nodetypes="csssssssccsssssssc"
           d="m 476.077,618.70254 c 0,-3.11872 -1.55936,-4.67807 -4.67808,-4.67807 l -196.47901,0 c -3.11872,0 -4.67808,1.55935 -4.67808,4.67807 l 0,274.44688 c 0,3.11872 1.55936,4.67807 4.67808,4.67807 l 196.47901,0 c 3.11872,0 4.67808,-1.55935 4.67808,-4.67807 l 0,-274.44688 m -4.67808,-7.79679 c 5.19786,0 7.79679,2.59893 7.79679,7.79679 l 0,274.44688 c 0,5.19785 -2.59893,7.79679 -7.79679,7.79679 l -196.47901,0 c -5.19787,0 -7.79679,-2.59894 -7.79679,-7.79679 l 0,-274.44688 c 0,-5.19786 2.59892,-7.79679 7.79679,-7.79679 l 196.47901,0"
           id="path4743-0-6-0"
           inkscape:connector-curvature="0"
           style="fill:#f5f5f5;stroke:none;display:inline" />
        <g
           id="g3466">
          <path
             style="fill:#ffffff;stroke:none;display:inline"
             inkscape:connector-curvature="0"
             id="path4745-0-4-2"
             d="m 476.077,618.70254 0,274.44688 c 0,3.11872 -1.55936,4.67807 -4.67808,4.67807 l -196.47901,0 c -3.11872,0 -4.67808,-1.55935 -4.67808,-4.67807 l 0,-274.44688 c 0,-3.11872 1.55936,-4.67807 4.67808,-4.67807 l 196.47901,0 c 3.11872,0 4.67808,1.55935 4.67808,4.67807 m -103.07352,113.83308 -8.57647,9.59005 -10.05785,10.68159 c -3.06674,4.1583 -3.76845,8.0047 -2.10513,11.53925 2.07913,4.3662 5.87358,6.39336 11.38331,6.08149 2.70288,-0.20791 5.17187,-0.88364 7.40694,-2.02716 l -1.40342,5.30181 c -0.93561,1.66332 -2.417,3.53455 -4.44417,5.61369 l 15.82748,0 c -1.97519,-2.07914 -3.43059,-3.95037 -4.3662,-5.61369 l -1.40342,-5.30181 7.48491,2.02716 c 5.45775,0.31187 9.25218,-1.71529 11.38331,-6.08149 1.66332,-3.53455 0.96161,-7.38095 -2.10513,-11.53925 l -9.90192,-10.68159 -9.12224,-9.59005"
             sodipodi:nodetypes="csssssssccccccccccccccccc" />
          <g
             style="stroke:#529848;stroke-opacity:1"
             id="g3462">
            <path
               sodipodi:nodetypes="csssssssccsssssssc"
               d="m 471.39892,610.90575 -196.47901,0 c -5.19787,0 -7.79679,2.59893 -7.79679,7.79679 l 0,274.44688 c 0,5.19785 2.59892,7.79679 7.79679,7.79679 l 196.47901,0 c 5.19786,0 7.79679,-2.59894 7.79679,-7.79679 l 0,-274.44688 c 0,-5.19786 -2.59893,-7.79679 -7.79679,-7.79679 m 10.91551,7.79679 0,274.44688 c 0,7.27701 -3.6385,10.9155 -10.91551,10.9155 l -196.47901,0 c -7.27701,0 -10.91551,-3.63849 -10.91551,-10.9155 l 0,-274.44688 c 0,-7.27699 3.6385,-10.9155 10.91551,-10.9155 l 196.47901,0 c 7.27701,0 10.91551,3.63851 10.91551,10.9155"
               id="path4747-9-7-4"
               inkscape:connector-curvature="0"
               style="fill:#529848;fill-opacity:1;stroke:#529848;stroke-opacity:1;display:inline" />
            <path
               sodipodi:nodetypes="cccccccccccccccc"
               d="m 374.28404,652.33356 40.09837,42.15469 43.52558,46.95278 c 13.48037,18.27849 16.56486,35.18602 9.25347,50.72273 -9.36774,19.19237 -26.04681,28.10312 -50.03728,26.73224 l -32.90122,-8.91075 6.16898,23.30503 c 4.11264,7.31141 10.51009,15.53671 19.19238,24.67592 l -69.57239,0 c 8.91076,-9.13921 15.42245,-17.36451 19.53511,-24.67592 l 6.16898,-23.30503 c -9.82466,5.02655 -20.67752,7.99684 -32.5585,8.91075 -24.21894,1.37088 -40.89807,-7.53987 -50.03727,-26.73224 -7.31141,-15.53671 -4.22692,-32.44424 9.25346,-50.72273 l 44.21102,-46.95278 37.69931,-42.15469"
               id="path4751-3-6-8"
               inkscape:connector-curvature="0"
               style="fill:#1c1c1c;stroke:#529848;stroke-opacity:1;display:inline" />
          </g>
        </g>
      </g>
      <g
         transform="matrix(1.0691306,-0.16699812,0.16699812,1.0691306,-125.38496,-54.363527)"
         id="g3484">
        <path
           sodipodi:nodetypes="csssssssccsssssssc"
           d="m 238.87051,610.92095 c 5.22314,0 7.83478,2.6116 7.83478,7.83478 l 0,275.78431 c 0,5.22318 -2.61164,7.83478 -7.83478,7.83478 l -197.436491,0 c -5.223292,0 -7.834782,-2.6116 -7.834782,-7.83478 l 0,-275.78431 c 0,-5.22318 2.61149,-7.83478 7.834782,-7.83478 l 197.436491,0 m 4.70087,7.83478 c 0,-3.13391 -1.56695,-4.70087 -4.70087,-4.70087 l -197.436491,0 c -3.133913,0 -4.700869,1.56696 -4.700869,4.70087 l 0,275.78431 c 0,3.13391 1.566956,4.70087 4.700869,4.70087 l 197.436491,0 c 3.13392,0 4.70087,-1.56696 4.70087,-4.70087 l 0,-275.78431"
           id="path4592-4-6-7-9"
           inkscape:connector-curvature="0"
           style="fill:#f5f5f5;stroke:none" />
        <path
           sodipodi:nodetypes="csssssssc"
           d="m 243.57138,618.75573 0,275.78431 c 0,3.13391 -1.56695,4.70087 -4.70087,4.70087 l -197.436491,0 c -3.133913,0 -4.700869,-1.56696 -4.700869,-4.70087 l 0,-275.78431 c 0,-3.13391 1.566956,-4.70087 4.700869,-4.70087 l 197.436491,0 c 3.13392,0 4.70087,1.56696 4.70087,4.70087"
           id="path4594-5-5-2-0"
           inkscape:connector-curvature="0"
           style="fill:#ffffff;stroke:none"
           inkscape:export-xdpi="45.720001"
           inkscape:export-ydpi="45.720001" />
        <g
           id="g3472">
          <path
             style="fill:#529848;fill-opacity:1;stroke:none"
             inkscape:connector-curvature="0"
             id="path4596-7-0-1-5"
             d="m 249.83921,618.75573 0,275.78431 c 0,7.31247 -3.65634,10.96869 -10.9687,10.96869 l -197.436491,0 c -7.312515,0 -10.968694,-3.65622 -10.968694,-10.96869 l 0,-275.78431 c 0,-7.31247 3.656179,-10.9687 10.968694,-10.9687 l 197.436491,0 c 7.31236,0 10.9687,3.65623 10.9687,10.9687 m -10.9687,-7.83478 -197.436491,0 c -5.223292,0 -7.834782,2.6116 -7.834782,7.83478 l 0,275.78431 c 0,5.22318 2.61149,7.83478 7.834782,7.83478 l 197.436491,0 c 5.22314,0 7.83478,-2.6116 7.83478,-7.83478 l 0,-275.78431 c 0,-5.22318 -2.61164,-7.83478 -7.83478,-7.83478"
             sodipodi:nodetypes="csssssssccsssssssc" />
          <path
             style="fill:#529848;fill-opacity:1;stroke:none"
             inkscape:connector-curvature="0"
             id="path4604-1-5-9-2"
             d="m 224.84571,686.35262 c 8.52454,9.64671 12.7875,20.5273 12.7875,32.64177 0,8.97367 -3.25343,19.2934 -9.75887,30.95919 -6.28204,10.99276 -13.46052,20.63945 -21.53683,28.94011 -34.54914,34.77301 -56.64659,61.35754 -66.29307,79.75358 -9.19824,-18.39604 -31.07158,-44.98057 -65.620015,-79.75358 -8.525228,-8.30066 -15.928514,-17.94735 -22.209856,-28.94011 -6.506152,-11.66579 -9.758876,-21.98552 -9.758876,-30.95919 0,-12.11447 4.262263,-22.99506 12.787493,-32.64177 C 64.665548,675.58421 76.891719,670.2 91.9231,670.2 c 14.80656,0 26.80864,5.27203 36.00688,15.81611 7.8515,8.525 11.88966,18.50822 12.11446,29.94965 0.45104,-11.44143 4.59879,-21.42465 12.45099,-29.94965 9.19755,-10.54408 21.08791,-15.81611 35.67038,-15.81611 15.03067,0 27.25755,5.38421 36.6799,16.15262"
             sodipodi:nodetypes="cscccccscscccsc" />
        </g>
      </g>
    </g>
  </g>
</svg>
